<svg width="68" height="68" viewBox="0 0 68 68" fill="none" xmlns="http://www.w3.org/2000/svg">
<path fill-rule="evenodd" clip-rule="evenodd" d="M34 3.5415C32.2866 3.5415 30.7089 3.96732 28.9815 4.6817C27.3136 5.37151 25.3763 6.38818 22.9639 7.65416L17.1059 10.7283C14.1452 12.282 11.7758 13.5254 9.94634 14.7471C8.05103 16.0128 6.59125 17.3455 5.52818 19.1508C4.46868 20.9501 3.99205 22.8984 3.76349 25.2186C3.54163 27.4706 3.54165 30.2404 3.54167 33.7238V34.2759C3.54165 37.7592 3.54163 40.529 3.76349 42.7811C3.99205 45.1013 4.46868 47.0496 5.52818 48.8488C6.59125 50.6541 8.05103 51.9869 9.94634 53.2526C11.7757 54.4743 14.1449 55.7176 17.1055 57.2712L22.9638 60.3455C25.3761 61.6114 27.3136 62.6282 28.9815 63.318C30.7089 64.0324 32.2866 64.4582 34 64.4582C35.7134 64.4582 37.2911 64.0324 39.0185 63.318C40.6864 62.6282 42.6237 61.6115 45.0361 60.3455L50.894 57.2714C53.8548 55.7177 56.2242 54.4743 58.0537 53.2526C59.949 51.9869 61.4088 50.6541 62.4718 48.8488C63.5313 47.0496 64.008 45.1013 64.2365 42.7811C64.4584 40.529 64.4584 37.7593 64.4583 34.276V33.7237C64.4584 30.2404 64.4584 27.4706 64.2365 25.2186C64.008 22.8984 63.5313 20.9501 62.4718 19.1508C61.4088 17.3455 59.949 16.0128 58.0537 14.7471C56.2242 13.5253 53.8548 12.282 50.894 10.7283L45.0362 7.6542C42.6238 6.3882 40.6865 5.37151 39.0185 4.6817C37.2911 3.96732 35.7134 3.5415 34 3.5415ZM24.8506 11.4637C27.3715 10.1408 29.138 9.21609 30.6058 8.60909C32.0343 8.01829 33.038 7.7915 34 7.7915C34.962 7.7915 35.9657 8.01829 37.3943 8.6091C38.862 9.21609 40.6285 10.1408 43.1494 11.4637L48.8161 14.4375C51.9035 16.0577 54.0727 17.1991 55.6934 18.2814C56.4929 18.8154 57.1213 19.3112 57.6285 19.8098L34 31.624L10.3715 19.8098C10.8788 19.3112 11.5071 18.8154 12.3066 18.2814C13.9273 17.1991 16.0965 16.0577 19.1839 14.4374L24.8506 11.4637ZM8.32344 23.5374C8.18035 24.1434 8.07219 24.8315 7.99302 25.6352C7.79406 27.6549 7.79167 30.2157 7.79167 33.8341V34.1656C7.79167 37.784 7.79406 40.3448 7.99302 42.3645C8.18761 44.3398 8.55729 45.6171 9.19041 46.6923C9.81998 47.7614 10.7306 48.6657 12.3066 49.7183C13.9273 50.8006 16.0965 51.942 19.1839 53.5622L24.8506 56.536C27.3715 57.8589 29.138 58.7836 30.6058 59.3906C31.0692 59.5822 31.4879 59.7356 31.875 59.8553V35.3132L8.32344 23.5374ZM36.125 59.8553C36.5121 59.7356 36.9308 59.5822 37.3943 59.3906C38.862 58.7836 40.6285 57.8588 43.1494 56.536L48.8161 53.5622C51.9035 51.942 54.0727 50.8006 55.6934 49.7183C57.2694 48.6658 58.18 47.7614 58.8096 46.6923C59.4427 45.6171 59.8124 44.3398 60.007 42.3645C60.206 40.3448 60.2083 37.784 60.2083 34.1656V33.8341C60.2083 30.2157 60.206 27.6549 60.007 25.6352C59.9278 24.8315 59.8197 24.1434 59.6766 23.5374L36.125 35.3132V59.8553Z" fill="url(#paint0_linear_901_2273)"/>
<defs>
<linearGradient id="paint0_linear_901_2273" x1="-48.999" y1="-1.7887" x2="78.6921" y2="55.6714" gradientUnits="userSpaceOnUse">
<stop stop-color="#61B895"/>
<stop offset="0.525" stop-color="#149ED5"/>
<stop offset="0.9999" stop-color="#FF1CF7"/>
</linearGradient>
</defs>
</svg>
