<svg width="68" height="68" viewBox="0 0 68 68" fill="none" xmlns="http://www.w3.org/2000/svg">
<path d="M57.0781 6.10938H10.9219C8.20795 6.10938 6 8.31733 6 11.0312V50.4062C6 53.1202 8.20795 55.3281 10.9219 55.3281C20.7126 55.3281 19.8346 55.3299 19.959 55.3246L23.5594 58.925C24.1995 59.5653 25.2391 59.5658 25.8796 58.925L27.6345 57.17C28.1049 57.3953 28.5866 57.5951 29.078 57.7689V60.25C29.078 61.1561 29.8126 61.8906 30.7186 61.8906H37.2811C38.1872 61.8906 38.9218 61.1561 38.9218 60.25V57.7689C39.4132 57.5951 39.8949 57.3953 40.3653 57.17L42.1202 58.925C42.7603 59.5653 43.7999 59.5658 44.4404 58.925L48.0375 55.3281H57.0781C59.792 55.3281 62 53.1202 62 50.4062V11.0312C62 8.31733 59.792 6.10938 57.0781 6.10938ZM10.9219 9.39062H57.0781C57.9828 9.39062 58.7188 10.1266 58.7188 11.0312V19.2344H9.28125V11.0312C9.28125 10.1266 10.0172 9.39062 10.9219 9.39062ZM43.2805 55.4447L41.8265 53.9908C41.2966 53.4608 40.4749 53.3575 39.8305 53.7392C38.9066 54.2864 37.9115 54.6992 36.8728 54.9663C36.1476 55.1527 35.6406 55.8065 35.6406 56.5553V58.6094H32.3594V56.5553C32.3594 55.8065 31.8524 55.1528 31.1272 54.9664C30.0885 54.6994 29.0934 54.2865 28.1695 53.7393C27.5248 53.3573 26.7033 53.461 26.1735 53.9909L24.7195 55.4448L22.3989 53.1242L23.8528 51.6703C24.3828 51.1405 24.4862 50.319 24.1044 49.6742C23.5572 48.7503 23.1444 47.7552 22.8773 46.7166C22.6911 45.9913 22.0372 45.4844 21.2884 45.4844H19.2344V42.2031H21.2884C22.0372 42.2031 22.691 41.6962 22.8773 40.9709C23.1443 39.9323 23.5572 38.9372 24.1044 38.0133C24.4862 37.3685 24.3828 36.547 23.8528 36.0172L22.3989 34.5633L24.7195 32.2427L26.1735 33.6966C26.7032 34.2265 27.5249 34.3299 28.1695 33.9482C29.0934 33.401 30.0885 32.9882 31.1272 32.7211C31.8524 32.5347 32.3594 31.8809 32.3594 31.1322V29.0781H35.6406V31.1322C35.6406 31.881 36.1476 32.5347 36.8728 32.7211C37.9115 32.9881 38.9066 33.401 39.8305 33.9482C40.475 34.33 41.2966 34.2264 41.8265 33.6966L43.2805 32.2427L45.6011 34.5633L44.1472 36.0172C43.6172 36.547 43.5138 37.3685 43.8956 38.0133C44.4428 38.9372 44.8556 39.9323 45.1227 40.9709C45.309 41.6962 45.9629 42.2031 46.7116 42.2031H48.7656V45.4844H46.7116C45.9628 45.4844 45.309 45.9913 45.1227 46.7166C44.8557 47.7552 44.4428 48.7503 43.8956 49.6742C43.5138 50.319 43.6172 51.1405 44.1472 51.6703L45.6011 53.1242L43.2805 55.4447ZM57.0781 52.0469H49.1563C49.0732 51.9516 49.2509 52.1336 47.3264 50.2092C47.5517 49.7387 47.7515 49.257 47.9253 48.7656H50.4062C51.3123 48.7656 52.0469 48.0311 52.0469 47.125V40.5625C52.0469 39.6564 51.3123 38.9219 50.4062 38.9219H47.9252C47.7514 38.4305 47.5516 37.9488 47.3262 37.4783L49.0813 35.7234C49.7216 35.0834 49.722 34.0438 49.0813 33.4033L44.4404 28.7624C43.8003 28.1221 42.7607 28.1216 42.1202 28.7624L40.3653 30.5174C39.8949 30.2921 39.4132 30.0922 38.9218 29.9185V27.4375C38.9218 26.5314 38.1872 25.7969 37.2811 25.7969H30.7186C29.8126 25.7969 29.078 26.5314 29.078 27.4375V29.9186C28.5866 30.0924 28.1049 30.2922 27.6345 30.5175L25.8796 28.7625C25.2395 28.1222 24.1999 28.1217 23.5594 28.7625L18.9185 33.4034C18.2782 34.0434 18.2778 35.083 18.9185 35.7235L20.6735 37.4785C20.4482 37.9489 20.2484 38.4306 20.0746 38.922H17.5938C16.6877 38.922 15.9531 39.6565 15.9531 40.5626V47.1251C15.9531 48.0312 16.6877 48.7657 17.5938 48.7657H20.0748C20.2486 49.2572 20.4484 49.7388 20.6737 50.2093C18.7492 52.1337 18.9269 51.9516 18.8438 52.047H10.9219C10.0172 52.047 9.28125 51.311 9.28125 50.4064V22.5156H58.7188V50.4062C58.7188 51.3109 57.9828 52.0469 57.0781 52.0469Z" fill="url(#paint0_linear_898_1478)"/>
<path d="M34 35.6406C29.4768 35.6406 25.7969 39.3205 25.7969 43.8438C25.7969 48.367 29.4768 52.0469 34 52.0469C38.5232 52.0469 42.2031 48.367 42.2031 43.8438C42.2031 39.3205 38.5232 35.6406 34 35.6406ZM34 48.7656C31.2861 48.7656 29.0781 46.5577 29.0781 43.8438C29.0781 41.1298 31.2861 38.9219 34 38.9219C36.7139 38.9219 38.9219 41.1298 38.9219 43.8438C38.9219 46.5577 36.7139 48.7656 34 48.7656Z" fill="url(#paint1_linear_898_1478)"/>
<path d="M14.3125 15.9531C15.2186 15.9531 15.9531 15.2186 15.9531 14.3125C15.9531 13.4064 15.2186 12.6719 14.3125 12.6719C13.4064 12.6719 12.6719 13.4064 12.6719 14.3125C12.6719 15.2186 13.4064 15.9531 14.3125 15.9531Z" fill="url(#paint2_linear_898_1478)"/>
<path d="M20.875 15.9531C21.7811 15.9531 22.5156 15.2186 22.5156 14.3125C22.5156 13.4064 21.7811 12.6719 20.875 12.6719C19.9689 12.6719 19.2344 13.4064 19.2344 14.3125C19.2344 15.2186 19.9689 15.9531 20.875 15.9531Z" fill="url(#paint3_linear_898_1478)"/>
<path d="M27.4375 15.9531C28.3436 15.9531 29.0781 15.2186 29.0781 14.3125C29.0781 13.4064 28.3436 12.6719 27.4375 12.6719C26.5314 12.6719 25.7969 13.4064 25.7969 14.3125C25.7969 15.2186 26.5314 15.9531 27.4375 15.9531Z" fill="url(#paint4_linear_898_1478)"/>
<path d="M43.8438 15.9531H53.6875C54.5936 15.9531 55.3281 15.2186 55.3281 14.3125C55.3281 13.4064 54.5936 12.6719 53.6875 12.6719H43.8438C42.9377 12.6719 42.2031 13.4064 42.2031 14.3125C42.2031 15.2186 42.9377 15.9531 43.8438 15.9531Z" fill="url(#paint5_linear_898_1478)"/>
<defs>
<linearGradient id="paint0_linear_898_1478" x1="-42.3" y1="1.22852" x2="74.9298" y2="54.188" gradientUnits="userSpaceOnUse">
<stop stop-color="#61B895"/>
<stop offset="0.525" stop-color="#149ED5"/>
<stop offset="0.9999" stop-color="#FF1CF7"/>
</linearGradient>
<linearGradient id="paint1_linear_898_1478" x1="11.6465" y1="34.2051" x2="46.0366" y2="49.6804" gradientUnits="userSpaceOnUse">
<stop stop-color="#61B895"/>
<stop offset="0.525" stop-color="#149ED5"/>
<stop offset="0.9999" stop-color="#FF1CF7"/>
</linearGradient>
<linearGradient id="paint2_linear_898_1478" x1="9.8418" y1="12.3848" x2="16.7198" y2="15.4798" gradientUnits="userSpaceOnUse">
<stop stop-color="#61B895"/>
<stop offset="0.525" stop-color="#149ED5"/>
<stop offset="0.9999" stop-color="#FF1CF7"/>
</linearGradient>
<linearGradient id="paint3_linear_898_1478" x1="16.4043" y1="12.3848" x2="23.2823" y2="15.4798" gradientUnits="userSpaceOnUse">
<stop stop-color="#61B895"/>
<stop offset="0.525" stop-color="#149ED5"/>
<stop offset="0.9999" stop-color="#FF1CF7"/>
</linearGradient>
<linearGradient id="paint4_linear_898_1478" x1="22.9668" y1="12.3848" x2="29.8448" y2="15.4798" gradientUnits="userSpaceOnUse">
<stop stop-color="#61B895"/>
<stop offset="0.525" stop-color="#149ED5"/>
<stop offset="0.9999" stop-color="#FF1CF7"/>
</linearGradient>
<linearGradient id="paint5_linear_898_1478" x1="30.8828" y1="12.3848" x2="38.6856" y2="26.4296" gradientUnits="userSpaceOnUse">
<stop stop-color="#61B895"/>
<stop offset="0.525" stop-color="#149ED5"/>
<stop offset="0.9999" stop-color="#FF1CF7"/>
</linearGradient>
</defs>
</svg>
