<svg width="70" height="70" viewBox="0 0 70 70" fill="none" xmlns="http://www.w3.org/2000/svg">
<path fill-rule="evenodd" clip-rule="evenodd" d="M30.0362 4.18332L29.9784 4.18429C29.6568 4.18967 29.4065 4.19386 29.1699 4.21221C26.1689 4.44489 23.5703 6.38539 22.4948 9.19679C22.4101 9.41841 22.3349 9.65728 22.2385 9.96411L22.2211 10.0192L22.1521 10.2385C22.1011 10.4008 22.0868 10.4455 22.0744 10.4818C21.6426 11.7415 20.1552 12.8118 18.5637 12.879L13.4137 13.2182C11.1908 13.5176 9.29308 14.107 7.70355 15.4456C7.14835 15.9132 6.64252 16.4364 6.19399 17.0071C4.90985 18.6409 4.38485 20.5575 4.16076 22.7892C3.94421 24.9459 3.98997 27.6523 4.04672 31.0092L4.04898 31.1431L4.05047 31.2317C4.06397 32.036 4.07663 32.79 4.15177 33.4238C4.23492 34.1251 4.41153 34.8684 4.87167 35.5813C5.02123 35.813 5.18987 36.0318 5.37582 36.2355C5.86408 36.7703 6.42638 37.111 6.98909 37.3605C7.07455 41.9359 7.21061 46.5599 7.68815 50.5139C7.96794 52.8306 8.37398 55.0033 8.99101 56.8512C9.59801 58.669 10.478 60.385 11.8448 61.5592C14.2126 63.5934 17.164 64.458 20.8364 64.8341C24.4412 65.2032 29.0523 65.1253 34.939 65.0258L35.2291 65.0209C41.1157 64.9215 45.7268 64.8437 49.3171 64.3529C52.9747 63.853 55.8952 62.8892 58.1929 60.7762C59.5193 59.5565 60.3408 57.8118 60.8861 55.9745C61.4404 54.1068 61.7728 51.9217 61.9742 49.5969C62.3179 45.6289 62.2977 41.003 62.2285 36.4273C62.7825 36.159 63.333 35.7994 63.8029 35.2485C63.9818 35.0386 64.143 34.8142 64.2846 34.5776C64.7204 33.8496 64.8718 33.1007 64.9313 32.397C64.985 31.7611 64.9721 31.007 64.9585 30.2028L64.9547 29.9802C64.898 26.6234 64.8524 23.9169 64.5631 21.7688C64.2637 19.5459 63.6743 17.6482 62.3357 16.0586C61.8682 15.5034 61.3449 14.9976 60.7743 14.5491C59.1404 13.2649 57.2238 12.7399 54.9921 12.5158L49.8336 12.3508C48.2413 12.3373 46.7195 11.3183 46.2452 10.0734C46.2317 10.0378 46.2156 9.99259 46.1593 9.8329L46.0638 9.56152C45.957 9.25815 45.8738 9.02202 45.7816 8.8034C44.6119 6.02993 41.9492 4.17831 38.942 4.04712C38.7049 4.03678 38.4547 4.04105 38.1331 4.04653L30.0362 4.18332ZM21.7215 17.0756L21.8308 17.0738L46.71 16.6535L46.8194 16.6516C50.2832 16.5932 52.7079 16.5579 54.5675 16.7446C56.4002 16.9286 57.4065 17.3077 58.148 17.8905C58.4904 18.1596 58.8043 18.4631 59.0849 18.7963C59.6924 19.5176 60.1053 20.5106 60.3511 22.336C60.6031 24.2077 60.6481 26.6637 60.7076 30.1859C60.7232 31.1098 60.7297 31.6445 60.6963 32.0395C60.6766 32.2728 60.6483 32.3679 60.6376 32.3954C60.6176 32.4287 60.5949 32.4603 60.5698 32.4899C60.5471 32.5089 60.466 32.5661 60.2512 32.6593C59.8877 32.8171 59.3788 32.9818 58.4984 33.2622L43.836 37.9323L43.8244 37.2468C43.7914 35.2911 42.1792 33.7324 40.2234 33.7655L28.8917 33.9569C26.936 33.9899 25.3773 35.6022 25.4104 37.5579L25.422 38.2434L10.6101 34.0712C9.72079 33.8207 9.20668 33.6732 8.83798 33.5278C8.62014 33.4419 8.53718 33.3875 8.5139 33.3693L25.422 38.2434L8.4429 33.2772C8.43125 33.25 8.39978 33.1559 8.37221 32.9234C8.32555 32.5298 8.31398 31.9951 8.29837 31.0713C8.23887 27.549 8.20082 25.0929 8.3895 23.2138C8.57351 21.3812 8.95265 20.3748 9.53544 19.6333C9.80456 19.2909 10.1081 18.977 10.4412 18.6965C11.1626 18.089 12.1555 17.676 13.9809 17.4302C15.8331 17.1808 18.2576 17.1342 21.7215 17.0756ZM30.108 8.43271C29.7018 8.43958 29.5898 8.44241 29.4985 8.44949C28.1344 8.55526 26.9532 9.4373 26.4643 10.7152C26.4316 10.8007 26.3971 10.9074 26.2752 11.2948L26.1989 11.5372C26.1585 11.6657 26.127 11.7657 26.0948 11.8597C25.9882 12.1706 25.8611 12.4701 25.7156 12.7575L42.6829 12.4709C42.5278 12.1886 42.3907 11.8936 42.2737 11.5865C42.2383 11.4936 42.2035 11.3947 42.1587 11.2676L42.0743 11.0279C41.9394 10.6448 41.9012 10.5394 41.8657 10.455C41.3339 9.19436 40.1236 8.35272 38.7567 8.29309C38.6652 8.28909 38.5532 8.29005 38.147 8.29691L30.108 8.43271ZM11.2664 38.6714C11.3545 42.7415 11.5025 46.6507 11.9075 50.0044C12.1705 52.182 12.5328 54.0395 13.0222 55.5051C13.5216 57.0008 14.0862 57.8818 14.6143 58.3355C16.0364 59.5573 17.9848 60.2698 21.2694 60.6062C24.592 60.9464 28.9491 60.8764 35.0122 60.774C41.0753 60.6716 45.4323 60.5944 48.7416 60.1421C52.0129 59.695 53.9361 58.917 55.3162 57.6479C55.8287 57.1766 56.3631 56.2771 56.8117 54.7654C57.2513 53.2841 57.5507 51.4154 57.74 49.2301C58.0315 45.8647 58.0474 41.9528 57.9979 37.882L43.911 42.3688L43.9279 43.3701C43.9523 44.8181 43.0928 46.1351 41.7574 46.6956L39.7874 47.5225C36.6009 48.86 33.022 48.9204 29.7922 47.6914L27.7954 46.9315C26.4419 46.4164 25.5383 45.1292 25.5138 43.6812L25.4969 42.6799L11.2664 38.6714ZM29.6717 38.1943L29.7551 43.1299L31.3037 43.7192C33.5136 44.5602 35.9623 44.5188 38.1425 43.6037L39.6704 42.9624L39.587 38.0268L29.6717 38.1943Z" fill="url(#paint0_linear_825_17206)"/>
<defs>
<linearGradient id="paint0_linear_825_17206" x1="-49.0221" y1="0.18789" x2="79.6213" y2="55.483" gradientUnits="userSpaceOnUse">
<stop stop-color="#61B895"/>
<stop offset="0.525" stop-color="#149ED5"/>
<stop offset="0.9999" stop-color="#FF1CF7"/>
</linearGradient>
</defs>
</svg>
