<svg width="68" height="68" viewBox="0 0 68 68" fill="none" xmlns="http://www.w3.org/2000/svg">
<path d="M40.1791 12.114C41.3127 12.4177 41.9854 13.5829 41.6817 14.7165L30.4231 56.734C30.1194 57.8677 28.9541 58.5404 27.8205 58.2366C26.6869 57.9329 26.0142 56.7677 26.3179 55.6341L37.5765 13.6166C37.8802 12.4829 39.0454 11.8102 40.1791 12.114Z" fill="url(#paint0_linear_898_1451)"/>
<path d="M46.5869 20.7622C47.372 19.8898 48.7156 19.8191 49.588 20.6042L54.5109 25.0348C56.5972 26.9124 58.3278 28.4698 59.5161 29.8824C60.7657 31.3678 61.654 32.9637 61.654 34.9337C61.654 36.9037 60.7657 38.4996 59.5161 39.985C58.3278 41.3976 56.5972 42.9551 54.5109 44.8326L49.588 49.2632C48.7156 50.0483 47.372 49.9776 46.5869 49.1053C45.8018 48.2329 45.8725 46.8893 46.7449 46.1042L51.5515 41.7782C53.7838 39.7691 55.2889 38.408 56.2639 37.2491C57.1996 36.1368 57.404 35.4874 57.404 34.9337C57.404 34.38 57.1996 33.7307 56.2639 32.6184C55.2889 31.4594 53.7838 30.0983 51.5515 28.0892L46.7449 23.7632C45.8725 22.9781 45.8018 21.6345 46.5869 20.7622Z" fill="url(#paint1_linear_898_1451)"/>
<path d="M21.2548 23.7632C22.1271 22.9781 22.1978 21.6345 21.4127 20.7622C20.6276 19.8898 19.284 19.8191 18.4117 20.6042L13.4888 25.0348C11.4025 26.9124 9.67189 28.4698 8.48354 29.8824C7.23397 31.3678 6.3457 32.9637 6.3457 34.9337C6.3457 36.9037 7.23397 38.4996 8.48354 39.985C9.67188 41.3976 11.4025 42.955 13.4887 44.8326L18.4117 49.2632C19.284 50.0483 20.6276 49.9776 21.4127 49.1053C22.1978 48.2329 22.1271 46.8893 21.2548 46.1042L16.4481 41.7782C14.2158 39.7691 12.7107 38.408 11.7358 37.2491C10.8001 36.1368 10.5957 35.4874 10.5957 34.9337C10.5957 34.38 10.8001 33.7307 11.7358 32.6184C12.7107 31.4594 14.2158 30.0983 16.4481 28.0892L21.2548 23.7632Z" fill="url(#paint2_linear_898_1451)"/>
<defs>
<linearGradient id="paint0_linear_898_1451" x1="-41.3577" y1="7.99252" x2="66.7676" y2="66.1542" gradientUnits="userSpaceOnUse">
<stop stop-color="#61B895"/>
<stop offset="0.525" stop-color="#149ED5"/>
<stop offset="0.9999" stop-color="#FF1CF7"/>
</linearGradient>
<linearGradient id="paint1_linear_898_1451" x1="-41.3577" y1="7.99252" x2="66.7676" y2="66.1542" gradientUnits="userSpaceOnUse">
<stop stop-color="#61B895"/>
<stop offset="0.525" stop-color="#149ED5"/>
<stop offset="0.9999" stop-color="#FF1CF7"/>
</linearGradient>
<linearGradient id="paint2_linear_898_1451" x1="-41.3577" y1="7.99252" x2="66.7676" y2="66.1542" gradientUnits="userSpaceOnUse">
<stop stop-color="#61B895"/>
<stop offset="0.525" stop-color="#149ED5"/>
<stop offset="0.9999" stop-color="#FF1CF7"/>
</linearGradient>
</defs>
</svg>
