<svg width="34" height="34" viewBox="0 0 34 34" fill="none" xmlns="http://www.w3.org/2000/svg">
<path fill-rule="evenodd" clip-rule="evenodd" d="M12.7346 7.51951C14.4062 4.11621 17.9073 1.771 21.9585 1.771C27.6309 1.771 32.2293 6.3694 32.2293 12.0418C32.2293 13.5606 31.899 15.0052 31.3052 16.3051C31.1502 16.6443 31.1201 16.9647 31.189 17.2222L31.3694 17.8966C31.947 20.0554 29.9721 22.0304 27.8133 21.4527L27.1389 21.2723C26.9473 21.221 26.7207 21.2246 26.4776 21.2937C25.7549 27.4516 20.5188 32.2293 14.1668 32.2293C12.2544 32.2293 10.4403 31.7955 8.82018 31.0199C8.49946 30.8663 8.18368 30.8352 7.92392 30.9047L6.18703 31.3694C4.02827 31.947 2.0533 29.9721 2.63091 27.8133L3.09564 26.0764C3.16514 25.8166 3.13399 25.5009 2.98044 25.1801C2.20483 23.5601 1.771 21.7459 1.771 19.8335C1.771 13.4719 6.5632 8.22954 12.7346 7.51951ZM15.2081 7.48078C21.3349 7.99032 26.1963 12.9557 26.5429 19.1274C26.9148 19.092 27.3013 19.116 27.6882 19.2195L28.3625 19.4C28.9417 19.5549 29.4716 19.0251 29.3166 18.4459L29.1362 17.7715C28.9136 16.9394 29.0587 16.1088 29.3723 15.4221C29.842 14.3938 30.1043 13.2499 30.1043 12.0418C30.1043 7.54301 26.4573 3.896 21.9585 3.896C19.1508 3.896 16.6732 5.31668 15.2081 7.48078ZM14.1668 9.56266C8.49441 9.56266 3.896 14.1611 3.896 19.8335C3.896 21.4216 4.25571 22.9228 4.89711 24.2625C5.2306 24.9591 5.37045 25.7959 5.14843 26.6257L4.6837 28.3625C4.52873 28.9417 5.0586 29.4716 5.63778 29.3166L7.37467 28.8519C8.20445 28.6299 9.0412 28.7697 9.73778 29.1032C11.0775 29.7446 12.5787 30.1043 14.1668 30.1043C19.8393 30.1043 24.4377 25.5059 24.4377 19.8335C24.4377 14.1611 19.8393 9.56266 14.1668 9.56266Z" fill="url(#paint0_linear_887_18297)"/>
<path d="M10.6252 19.8335C10.6252 20.6159 9.9909 21.2502 9.2085 21.2502C8.42609 21.2502 7.79183 20.6159 7.79183 19.8335C7.79183 19.0511 8.42609 18.4168 9.2085 18.4168C9.9909 18.4168 10.6252 19.0511 10.6252 19.8335Z" fill="url(#paint1_linear_887_18297)"/>
<path d="M15.5835 19.8335C15.5835 20.6159 14.9492 21.2502 14.1668 21.2502C13.3844 21.2502 12.7502 20.6159 12.7502 19.8335C12.7502 19.0511 13.3844 18.4168 14.1668 18.4168C14.9492 18.4168 15.5835 19.0511 15.5835 19.8335Z" fill="url(#paint2_linear_887_18297)"/>
<path d="M20.5418 19.8335C20.5418 20.6159 19.9076 21.2502 19.1252 21.2502C18.3428 21.2502 17.7085 20.6159 17.7085 19.8335C17.7085 19.0511 18.3428 18.4168 19.1252 18.4168C19.9076 18.4168 20.5418 19.0511 20.5418 19.8335Z" fill="url(#paint3_linear_887_18297)"/>
<defs>
<linearGradient id="paint0_linear_887_18297" x1="-24.4993" y1="-0.894108" x2="39.3462" y2="27.8359" gradientUnits="userSpaceOnUse">
<stop stop-color="#61B895"/>
<stop offset="0.525" stop-color="#149ED5"/>
<stop offset="0.9999" stop-color="#FF1CF7"/>
</linearGradient>
<linearGradient id="paint1_linear_887_18297" x1="-24.4993" y1="-0.894108" x2="39.3462" y2="27.8359" gradientUnits="userSpaceOnUse">
<stop stop-color="#61B895"/>
<stop offset="0.525" stop-color="#149ED5"/>
<stop offset="0.9999" stop-color="#FF1CF7"/>
</linearGradient>
<linearGradient id="paint2_linear_887_18297" x1="-24.4993" y1="-0.894108" x2="39.3462" y2="27.8359" gradientUnits="userSpaceOnUse">
<stop stop-color="#61B895"/>
<stop offset="0.525" stop-color="#149ED5"/>
<stop offset="0.9999" stop-color="#FF1CF7"/>
</linearGradient>
<linearGradient id="paint3_linear_887_18297" x1="-24.4993" y1="-0.894108" x2="39.3462" y2="27.8359" gradientUnits="userSpaceOnUse">
<stop stop-color="#61B895"/>
<stop offset="0.525" stop-color="#149ED5"/>
<stop offset="0.9999" stop-color="#FF1CF7"/>
</linearGradient>
</defs>
</svg>
