<svg width="32" height="32" viewBox="0 0 32 32" fill="none" xmlns="http://www.w3.org/2000/svg">
<path d="M18.7465 13.2133H20.0798C20.2519 13.2133 20.4167 13.1441 20.5372 13.0212C20.6576 12.8982 20.7234 12.732 20.7198 12.56V10.4266C20.721 10.093 20.4656 9.81443 20.1332 9.78663C20.1332 9.78663 19.1865 9.70663 18.0265 9.70663C15.1732 9.70663 13.5998 11.4 13.5998 14.4666V16.8266H10.9732C10.8023 16.823 10.6374 16.8892 10.5166 17.01C10.3957 17.1309 10.3295 17.2958 10.3332 17.4666V19.4133C10.3295 19.5841 10.3957 19.7491 10.5166 19.8699C10.6374 19.9907 10.8023 20.057 10.9732 20.0533H13.5598V27.6H17.4532V20.0533H19.7998C20.1221 20.05 20.3938 19.8123 20.4398 19.4933L20.6798 17.5466C20.7043 17.3624 20.6457 17.1768 20.5198 17.04C20.3977 16.9034 20.223 16.8258 20.0398 16.8266H17.4532V14.5466C17.4528 13.8256 18.0258 13.2349 18.7465 13.2133Z" fill="#FCFCFC"/>
<path fill-rule="evenodd" clip-rule="evenodd" d="M2.6665 15.88C2.6665 8.58244 8.58231 2.66663 15.8798 2.66663C19.3842 2.66663 22.7451 4.05874 25.2231 6.53672C27.7011 9.0147 29.0932 12.3756 29.0932 15.88C29.0932 23.1775 23.1774 29.0933 15.8798 29.0933C8.58231 29.0933 2.6665 23.1775 2.6665 15.88ZM27.0932 15.88C27.0932 9.68701 22.0728 4.66663 15.8798 4.66663C9.69296 4.68129 4.68116 9.69309 4.6665 15.88C4.6665 22.0729 9.68688 27.0933 15.8798 27.0933C22.0728 27.0933 27.0932 22.0729 27.0932 15.88Z" fill="#FCFCFC"/>
</svg>
