<svg width="68" height="68" viewBox="0 0 68 68" fill="none" xmlns="http://www.w3.org/2000/svg">
<path d="M14.1665 22.6665C9.4721 22.6665 5.6665 18.8609 5.6665 14.1665C5.6665 9.4721 9.4721 5.6665 14.1665 5.6665C18.8609 5.6665 22.6665 9.4721 22.6665 14.1665C22.6665 18.8609 18.8609 22.6665 14.1665 22.6665ZM53.8332 22.6665C49.1386 22.6665 45.3332 18.8609 45.3332 14.1665C45.3332 9.4721 49.1386 5.6665 53.8332 5.6665C58.5277 5.6665 62.3332 9.4721 62.3332 14.1665C62.3332 18.8609 58.5277 22.6665 53.8332 22.6665ZM53.8332 62.3332C49.1386 62.3332 45.3332 58.5277 45.3332 53.8332C45.3332 49.1386 49.1386 45.3332 53.8332 45.3332C58.5277 45.3332 62.3332 49.1386 62.3332 53.8332C62.3332 58.5277 58.5277 62.3332 53.8332 62.3332ZM14.1665 62.3332C9.4721 62.3332 5.6665 58.5277 5.6665 53.8332C5.6665 49.1386 9.4721 45.3332 14.1665 45.3332C18.8609 45.3332 22.6665 49.1386 22.6665 53.8332C22.6665 58.5277 18.8609 62.3332 14.1665 62.3332ZM25.4998 11.3332H42.4998V16.9998H25.4998V11.3332ZM25.4998 50.9998H42.4998V56.6665H25.4998V50.9998ZM11.3332 25.4998H16.9998V42.4998H11.3332V25.4998ZM50.9998 25.4998H56.6665V42.4998H50.9998V25.4998Z" fill="url(#paint0_linear_898_1461)"/>
<defs>
<linearGradient id="paint0_linear_898_1461" x1="-43.2085" y1="0.708171" x2="75.5739" y2="54.1594" gradientUnits="userSpaceOnUse">
<stop stop-color="#61B895"/>
<stop offset="0.525" stop-color="#149ED5"/>
<stop offset="0.9999" stop-color="#FF1CF7"/>
</linearGradient>
</defs>
</svg>
