<svg width="59" height="55" viewBox="0 0 59 55" fill="none" xmlns="http://www.w3.org/2000/svg">
<rect width="59" height="55" rx="4" fill="#FCFCFC"/>
<path d="M19.024 43.396C16.984 43.396 15.136 42.844 13.48 41.74C11.824 40.636 10.516 39.1 9.556 37.132C8.62 35.14 8.152 32.848 8.152 30.256C8.152 27.64 8.62 25.36 9.556 23.416C10.492 21.448 11.776 19.924 13.408 18.844C15.04 17.74 16.888 17.188 18.952 17.188C21.04 17.188 22.9 17.74 24.532 18.844C26.164 19.924 27.448 21.448 28.384 23.416C29.344 25.384 29.824 27.676 29.824 30.292C29.824 32.908 29.344 35.2 28.384 37.168C27.448 39.136 26.164 40.672 24.532 41.776C22.924 42.856 21.088 43.396 19.024 43.396ZM18.988 38.392C20.044 38.392 20.956 38.092 21.724 37.492C22.492 36.868 23.08 35.956 23.488 34.756C23.92 33.532 24.136 32.044 24.136 30.292C24.136 28.516 23.92 27.028 23.488 25.828C23.08 24.628 22.492 23.728 21.724 23.128C20.956 22.504 20.032 22.192 18.952 22.192C17.92 22.192 17.008 22.492 16.216 23.092C15.448 23.692 14.86 24.592 14.452 25.792C14.044 26.992 13.84 28.48 13.84 30.256C13.84 32.032 14.044 33.52 14.452 34.72C14.86 35.92 15.448 36.832 16.216 37.456C17.008 38.08 17.932 38.392 18.988 38.392ZM40.0846 43.396C38.3326 43.396 36.7246 43.096 35.2606 42.496C33.7966 41.872 32.5606 40.984 31.5526 39.832L35.1886 36.196C35.6446 36.868 36.3046 37.42 37.1686 37.852C38.0566 38.26 38.9926 38.464 39.9766 38.464C40.8646 38.464 41.6326 38.308 42.2806 37.996C42.9286 37.684 43.4326 37.24 43.7926 36.664C44.1766 36.088 44.3686 35.404 44.3686 34.612C44.3686 33.82 44.1766 33.148 43.7926 32.596C43.4326 32.02 42.8926 31.576 42.1726 31.264C41.4766 30.952 40.6366 30.796 39.6526 30.796C39.1966 30.796 38.7166 30.832 38.2126 30.904C37.7326 30.952 37.3246 31.036 36.9886 31.156L39.4726 28.024C40.1446 27.832 40.7806 27.676 41.3806 27.556C42.0046 27.412 42.5806 27.34 43.1086 27.34C44.4046 27.34 45.5686 27.652 46.6006 28.276C47.6326 28.876 48.4486 29.74 49.0486 30.868C49.6726 31.972 49.9846 33.292 49.9846 34.828C49.9846 36.508 49.5646 37.996 48.7246 39.292C47.9086 40.588 46.7566 41.596 45.2686 42.316C43.8046 43.036 42.0766 43.396 40.0846 43.396ZM36.9886 31.156V28.024L43.1806 20.752L49.5166 20.716L43.0726 28.06L36.9886 31.156ZM33.1366 22.372V17.584H49.5166V20.716L45.0886 22.372H33.1366Z" fill="url(#paint0_linear_898_1325)"/>
<defs>
<linearGradient id="paint0_linear_898_1325" x1="-31.8125" y1="5.4125" x2="59.3724" y2="50.4483" gradientUnits="userSpaceOnUse">
<stop stop-color="#61B895"/>
<stop offset="0.525" stop-color="#149ED5"/>
<stop offset="0.9999" stop-color="#FF1CF7"/>
</linearGradient>
</defs>
</svg>
