<svg width="60" height="55" viewBox="0 0 60 55" fill="none" xmlns="http://www.w3.org/2000/svg">
<rect width="60" height="55" rx="4" fill="#FCFCFC"/>
<path d="M19.024 43.396C16.984 43.396 15.136 42.844 13.48 41.74C11.824 40.636 10.516 39.1 9.556 37.132C8.62 35.14 8.152 32.848 8.152 30.256C8.152 27.64 8.62 25.36 9.556 23.416C10.492 21.448 11.776 19.924 13.408 18.844C15.04 17.74 16.888 17.188 18.952 17.188C21.04 17.188 22.9 17.74 24.532 18.844C26.164 19.924 27.448 21.448 28.384 23.416C29.344 25.384 29.824 27.676 29.824 30.292C29.824 32.908 29.344 35.2 28.384 37.168C27.448 39.136 26.164 40.672 24.532 41.776C22.924 42.856 21.088 43.396 19.024 43.396ZM18.988 38.392C20.044 38.392 20.956 38.092 21.724 37.492C22.492 36.868 23.08 35.956 23.488 34.756C23.92 33.532 24.136 32.044 24.136 30.292C24.136 28.516 23.92 27.028 23.488 25.828C23.08 24.628 22.492 23.728 21.724 23.128C20.956 22.504 20.032 22.192 18.952 22.192C17.92 22.192 17.008 22.492 16.216 23.092C15.448 23.692 14.86 24.592 14.452 25.792C14.044 26.992 13.84 28.48 13.84 30.256C13.84 32.032 14.044 33.52 14.452 34.72C14.86 35.92 15.448 36.832 16.216 37.456C17.008 38.08 17.932 38.392 18.988 38.392ZM31.7326 34.18L40.0846 17.584H46.2406L37.7086 34.18H31.7326ZM31.7326 37.348V34.18L33.6046 32.56H52.1086V37.348H31.7326ZM43.7206 43V27.268H49.2646V43H43.7206Z" fill="url(#paint0_linear_898_1301)"/>
<defs>
<linearGradient id="paint0_linear_898_1301" x1="-32.675" y1="5.4125" x2="59.722" y2="52.061" gradientUnits="userSpaceOnUse">
<stop stop-color="#61B895"/>
<stop offset="0.525" stop-color="#149ED5"/>
<stop offset="0.9999" stop-color="#FF1CF7"/>
</linearGradient>
</defs>
</svg>
