<svg width="59" height="55" viewBox="0 0 59 55" fill="none" xmlns="http://www.w3.org/2000/svg">
<rect width="59" height="55" rx="4" fill="#FCFCFC"/>
<path d="M19.024 43.396C16.984 43.396 15.136 42.844 13.48 41.74C11.824 40.636 10.516 39.1 9.556 37.132C8.62 35.14 8.152 32.848 8.152 30.256C8.152 27.64 8.62 25.36 9.556 23.416C10.492 21.448 11.776 19.924 13.408 18.844C15.04 17.74 16.888 17.188 18.952 17.188C21.04 17.188 22.9 17.74 24.532 18.844C26.164 19.924 27.448 21.448 28.384 23.416C29.344 25.384 29.824 27.676 29.824 30.292C29.824 32.908 29.344 35.2 28.384 37.168C27.448 39.136 26.164 40.672 24.532 41.776C22.924 42.856 21.088 43.396 19.024 43.396ZM18.988 38.392C20.044 38.392 20.956 38.092 21.724 37.492C22.492 36.868 23.08 35.956 23.488 34.756C23.92 33.532 24.136 32.044 24.136 30.292C24.136 28.516 23.92 27.028 23.488 25.828C23.08 24.628 22.492 23.728 21.724 23.128C20.956 22.504 20.032 22.192 18.952 22.192C17.92 22.192 17.008 22.492 16.216 23.092C15.448 23.692 14.86 24.592 14.452 25.792C14.044 26.992 13.84 28.48 13.84 30.256C13.84 32.032 14.044 33.52 14.452 34.72C14.86 35.92 15.448 36.832 16.216 37.456C17.008 38.08 17.932 38.392 18.988 38.392ZM41.3086 43.396C39.5326 43.396 37.9246 43 36.4846 42.208C35.0686 41.416 33.9406 40.36 33.1006 39.04C32.2846 37.696 31.8766 36.196 31.8766 34.54C31.8766 32.38 32.6326 30.196 34.1446 27.988L41.3086 17.584H47.6806L39.7246 28.672L37.6006 28.852C37.9366 28.276 38.2846 27.784 38.6446 27.376C39.0286 26.944 39.5086 26.62 40.0846 26.404C40.6606 26.164 41.3926 26.044 42.2806 26.044C43.8646 26.044 45.2806 26.416 46.5286 27.16C47.8006 27.88 48.8206 28.876 49.5886 30.148C50.3566 31.396 50.7406 32.836 50.7406 34.468C50.7406 36.124 50.3206 37.636 49.4806 39.004C48.6406 40.348 47.5126 41.416 46.0966 42.208C44.6806 43 43.0846 43.396 41.3086 43.396ZM41.3086 38.464C42.0526 38.464 42.7246 38.284 43.3246 37.924C43.9246 37.564 44.3926 37.072 44.7286 36.448C45.0646 35.824 45.2326 35.128 45.2326 34.36C45.2326 33.568 45.0646 32.872 44.7286 32.272C44.3926 31.648 43.9246 31.168 43.3246 30.832C42.7246 30.472 42.0526 30.292 41.3086 30.292C40.5406 30.292 39.8566 30.472 39.2566 30.832C38.6806 31.168 38.2246 31.648 37.8886 32.272C37.5526 32.872 37.3846 33.568 37.3846 34.36C37.3846 35.128 37.5526 35.824 37.8886 36.448C38.2246 37.072 38.6806 37.564 39.2566 37.924C39.8566 38.284 40.5406 38.464 41.3086 38.464Z" fill="url(#paint0_linear_898_1319)"/>
<defs>
<linearGradient id="paint0_linear_898_1319" x1="-31.8125" y1="5.4125" x2="59.3724" y2="50.4483" gradientUnits="userSpaceOnUse">
<stop stop-color="#61B895"/>
<stop offset="0.525" stop-color="#149ED5"/>
<stop offset="0.9999" stop-color="#FF1CF7"/>
</linearGradient>
</defs>
</svg>
