<svg width="59" height="55" viewBox="0 0 59 55" fill="none" xmlns="http://www.w3.org/2000/svg">
<rect width="59" height="55" rx="4" fill="#FCFCFC"/>
<path d="M19.024 43.396C16.984 43.396 15.136 42.844 13.48 41.74C11.824 40.636 10.516 39.1 9.556 37.132C8.62 35.14 8.152 32.848 8.152 30.256C8.152 27.64 8.62 25.36 9.556 23.416C10.492 21.448 11.776 19.924 13.408 18.844C15.04 17.74 16.888 17.188 18.952 17.188C21.04 17.188 22.9 17.74 24.532 18.844C26.164 19.924 27.448 21.448 28.384 23.416C29.344 25.384 29.824 27.676 29.824 30.292C29.824 32.908 29.344 35.2 28.384 37.168C27.448 39.136 26.164 40.672 24.532 41.776C22.924 42.856 21.088 43.396 19.024 43.396ZM18.988 38.392C20.044 38.392 20.956 38.092 21.724 37.492C22.492 36.868 23.08 35.956 23.488 34.756C23.92 33.532 24.136 32.044 24.136 30.292C24.136 28.516 23.92 27.028 23.488 25.828C23.08 24.628 22.492 23.728 21.724 23.128C20.956 22.504 20.032 22.192 18.952 22.192C17.92 22.192 17.008 22.492 16.216 23.092C15.448 23.692 14.86 24.592 14.452 25.792C14.044 26.992 13.84 28.48 13.84 30.256C13.84 32.032 14.044 33.52 14.452 34.72C14.86 35.92 15.448 36.832 16.216 37.456C17.008 38.08 17.932 38.392 18.988 38.392ZM31.8406 39.832L41.5966 29.752C42.1966 29.152 42.6766 28.6 43.0366 28.096C43.3966 27.592 43.6606 27.124 43.8286 26.692C43.9966 26.236 44.0806 25.78 44.0806 25.324C44.0806 24.34 43.7566 23.572 43.1086 23.02C42.4846 22.444 41.6566 22.156 40.6246 22.156C39.6166 22.156 38.7046 22.432 37.8886 22.984C37.0966 23.512 36.3286 24.388 35.5846 25.612L31.8046 22.336C32.8126 20.632 34.0966 19.348 35.6566 18.484C37.2166 17.62 39.0046 17.188 41.0206 17.188C42.7726 17.188 44.2846 17.512 45.5566 18.16C46.8526 18.808 47.8486 19.732 48.5446 20.932C49.2646 22.132 49.6246 23.536 49.6246 25.144C49.6246 26.152 49.4926 27.088 49.2286 27.952C48.9646 28.792 48.5326 29.632 47.9326 30.472C47.3566 31.288 46.5766 32.188 45.5926 33.172L38.8246 39.904L31.8406 39.832ZM31.8406 43V39.832L36.6286 38.176H50.1286V43H31.8406Z" fill="url(#paint0_linear_898_1313)"/>
<defs>
<linearGradient id="paint0_linear_898_1313" x1="-31.8125" y1="5.4125" x2="59.3724" y2="50.4483" gradientUnits="userSpaceOnUse">
<stop stop-color="#61B895"/>
<stop offset="0.525" stop-color="#149ED5"/>
<stop offset="0.9999" stop-color="#FF1CF7"/>
</linearGradient>
</defs>
</svg>
