<svg width="32" height="32" viewBox="0 0 32 32" fill="none" xmlns="http://www.w3.org/2000/svg">
<path fill-rule="evenodd" clip-rule="evenodd" d="M10.6665 2.66663H20.9332C25.3514 2.66663 28.9332 6.24835 28.9332 10.6666V20.9333C28.9332 25.3516 25.3514 28.9333 20.9332 28.9333H10.6665C6.24823 28.9333 2.6665 25.3516 2.6665 20.9333V10.6666C2.6665 6.24835 6.24823 2.66663 10.6665 2.66663ZM26.9332 10.6666C26.9258 7.35596 24.2438 4.67396 20.9332 4.66663H10.6665C7.35584 4.67396 4.67384 7.35596 4.6665 10.6666V20.9333C4.67384 24.244 7.35584 26.926 10.6665 26.9333H20.9332C24.2438 26.926 26.9258 24.244 26.9332 20.9333V10.6666Z" fill="#FCFCFC"/>
<path fill-rule="evenodd" clip-rule="evenodd" d="M10.0665 15.8C10.0738 12.6366 12.6364 10.074 15.7998 10.0666C18.9632 10.074 21.5258 12.6366 21.5332 15.8C21.5332 18.9664 18.9663 21.5333 15.7998 21.5333C12.6334 21.5333 10.0665 18.9664 10.0665 15.8ZM19.5332 15.8C19.5332 13.7381 17.8617 12.0666 15.7998 12.0666C13.741 12.0739 12.0738 13.7411 12.0665 15.8C12.0665 17.8618 13.738 19.5333 15.7998 19.5333C17.8617 19.5333 19.5332 17.8618 19.5332 15.8Z" fill="#FCFCFC"/>
<path d="M20.6798 8.67329C20.6798 7.87432 21.3275 7.22663 22.1265 7.22663C22.9255 7.22663 23.5732 7.87432 23.5732 8.67329C23.5732 9.47226 22.9255 10.12 22.1265 10.12C21.3275 10.12 20.6798 9.47226 20.6798 8.67329Z" fill="#FCFCFC"/>
</svg>
