<svg width="68" height="68" viewBox="0 0 68 68" fill="none" xmlns="http://www.w3.org/2000/svg">
<path fill-rule="evenodd" clip-rule="evenodd" d="M25.3445 6.375H42.6555C46.5303 6.37494 49.6536 6.3749 52.11 6.70515C54.6603 7.04803 56.8076 7.78156 58.513 9.48699C60.2184 11.1924 60.952 13.3397 61.2949 15.89C61.6251 18.3465 61.6251 21.4697 61.625 25.3445V39.814C61.6251 42.3597 61.6252 44.4825 61.3986 46.1677C61.1594 47.9464 60.6334 49.5524 59.3429 50.8429C58.0524 52.1334 56.4464 52.6594 54.6677 52.8986C52.9825 53.1252 50.8597 53.1251 48.314 53.125H19.686C17.1403 53.1251 15.0175 53.1252 13.3323 52.8986C11.5536 52.6594 9.94763 52.1334 8.65713 50.8429C7.36663 49.5524 6.84057 47.9464 6.60142 46.1677C6.37485 44.4825 6.37492 42.3597 6.375 39.814L6.375 25.3445C6.37495 21.4697 6.3749 18.3464 6.70515 15.89C7.04803 13.3397 7.78157 11.1924 9.487 9.48699C11.1924 7.78156 13.3397 7.04803 15.89 6.70515C18.3465 6.3749 21.4697 6.37494 25.3445 6.375ZM16.4563 10.9173C14.3773 11.1968 13.2764 11.708 12.4922 12.4922C11.708 13.2764 11.1968 14.3773 10.9173 16.4563C10.6295 18.5965 10.625 21.433 10.625 25.5V39.6667C10.625 42.398 10.6295 44.2328 10.8135 45.6014C10.9893 46.9089 11.2931 47.4684 11.6623 47.8377C12.0316 48.2069 12.5911 48.5107 13.8986 48.6865C15.2672 48.8705 17.102 48.875 19.8333 48.875H48.1667C50.898 48.875 52.7328 48.8705 54.1014 48.6865C55.4089 48.5107 55.9684 48.2069 56.3377 47.8377C56.7069 47.4684 57.0107 46.9089 57.1865 45.6014C57.3705 44.2328 57.375 42.398 57.375 39.6667V25.5C57.375 21.433 57.3705 18.5965 57.0828 16.4563C56.8032 14.3773 56.292 13.2764 55.5078 12.4922C54.7237 11.708 53.6227 11.1968 51.5437 10.9173C49.4035 10.6295 46.567 10.625 42.5 10.625H25.5C21.433 10.625 18.5965 10.6295 16.4563 10.9173ZM23.375 42.5C23.375 41.3264 24.3264 40.375 25.5 40.375H42.5C43.6736 40.375 44.625 41.3264 44.625 42.5C44.625 43.6736 43.6736 44.625 42.5 44.625H25.5C24.3264 44.625 23.375 43.6736 23.375 42.5ZM3.54167 59.5C3.54167 58.3264 4.49307 57.375 5.66667 57.375H62.3333C63.5069 57.375 64.4583 58.3264 64.4583 59.5C64.4583 60.6736 63.5069 61.625 62.3333 61.625H5.66667C4.49307 61.625 3.54167 60.6736 3.54167 59.5Z" fill="url(#paint0_linear_901_2286)"/>
<defs>
<linearGradient id="paint0_linear_901_2286" x1="-48.999" y1="1.54063" x2="74.2176" y2="62.674" gradientUnits="userSpaceOnUse">
<stop stop-color="#61B895"/>
<stop offset="0.525" stop-color="#149ED5"/>
<stop offset="0.9999" stop-color="#FF1CF7"/>
</linearGradient>
</defs>
</svg>
