<svg width="50" height="50" viewBox="0 0 50 50" fill="none" xmlns="http://www.w3.org/2000/svg">
<g clip-path="url(#clip0_898_1540)">
<path fill-rule="evenodd" clip-rule="evenodd" d="M24.9998 45.8337C36.5058 45.8337 45.8332 36.5063 45.8332 25.0003C45.8332 13.4944 36.5058 4.16699 24.9998 4.16699C13.4939 4.16699 4.1665 13.4944 4.1665 25.0003C4.1665 36.5063 13.4939 45.8337 24.9998 45.8337ZM22.2779 33.0124L32.1117 27.2065C33.7403 26.2449 33.7403 23.7557 32.1117 22.7941L22.2779 16.9882C20.6951 16.0537 18.7498 17.2701 18.7498 19.1944V30.8062C18.7498 32.7306 20.6951 33.947 22.2779 33.0124Z" fill="#FCFCFC"/>
<mask id="path-2-inside-1_898_1540" fill="white">
<path d="M25 50C18.3696 50 12.0107 47.3661 7.32233 42.6777C2.63392 37.9893 -1.84446e-07 31.6304 0 25C1.84446e-07 18.3696 2.63392 12.0107 7.32233 7.32233C12.0107 2.63392 18.3696 -7.90669e-08 25 0V4.12544C19.4637 4.12544 14.1542 6.32472 10.2395 10.2395C6.32472 14.1542 4.12544 19.4637 4.12544 25C4.12544 30.5363 6.32472 35.8458 10.2395 39.7605C14.1542 43.6753 19.4637 45.8746 25 45.8746L25 50Z"/>
</mask>
<path d="M25 50C18.3696 50 12.0107 47.3661 7.32233 42.6777C2.63392 37.9893 -1.84446e-07 31.6304 0 25C1.84446e-07 18.3696 2.63392 12.0107 7.32233 7.32233C12.0107 2.63392 18.3696 -7.90669e-08 25 0V4.12544C19.4637 4.12544 14.1542 6.32472 10.2395 10.2395C6.32472 14.1542 4.12544 19.4637 4.12544 25C4.12544 30.5363 6.32472 35.8458 10.2395 39.7605C14.1542 43.6753 19.4637 45.8746 25 45.8746L25 50Z" stroke="url(#paint0_linear_898_1540)" stroke-width="10" mask="url(#path-2-inside-1_898_1540)"/>
</g>
<path d="M33.5 23.2679C34.8333 24.0377 34.8333 25.9623 33.5 26.7321L21.5 33.6603C20.1667 34.4301 18.5 33.4678 18.5 31.9282V18.0718C18.5 16.5322 20.1667 15.5699 21.5 16.3397L33.5 23.2679Z" fill="url(#paint1_linear_898_1540)"/>
<defs>
<linearGradient id="paint0_linear_898_1540" x1="-43.125" y1="-4.375" x2="61.683" y2="42.7879" gradientUnits="userSpaceOnUse">
<stop stop-color="#61B895"/>
<stop offset="0.525" stop-color="#149ED5"/>
<stop offset="0.9999" stop-color="#FF1CF7"/>
</linearGradient>
<linearGradient id="paint1_linear_898_1540" x1="38.6" y1="-7.7" x2="15.9618" y2="42.6078" gradientUnits="userSpaceOnUse">
<stop stop-color="#61B895"/>
<stop offset="0.525" stop-color="#149ED5"/>
<stop offset="0.9999" stop-color="#FF1CF7"/>
</linearGradient>
<clipPath id="clip0_898_1540">
<rect width="50" height="50" fill="white"/>
</clipPath>
</defs>
</svg>
