<svg width="32" height="32" viewBox="0 0 32 32" fill="none" xmlns="http://www.w3.org/2000/svg">
<path d="M17.6796 2.50689C17.7679 1.9617 18.2833 1.59187 18.8285 1.68013C18.8622 1.68659 18.9708 1.70689 19.0277 1.71956C19.1415 1.74489 19.3002 1.78391 19.4981 1.84154C19.8938 1.9568 20.4466 2.14667 21.1101 2.45085C22.4384 3.05986 24.2062 4.1252 26.0406 5.9596C27.875 7.794 28.9403 9.56175 29.5493 10.8901C29.8535 11.5536 30.0434 12.1064 30.1586 12.5021C30.2163 12.7 30.2553 12.8587 30.2806 12.9725C30.2933 13.0294 30.3025 13.075 30.309 13.1088L30.3167 13.1504C30.4049 13.6956 30.0385 14.2323 29.4933 14.3205C28.9497 14.4085 28.4375 14.0405 28.3471 13.4979C28.3443 13.4833 28.3367 13.4441 28.3284 13.4072C28.312 13.3334 28.2835 13.2163 28.2384 13.0614C28.1482 12.7516 27.9915 12.2912 27.7313 11.7236C27.2115 10.5899 26.2768 9.02429 24.6264 7.37381C22.9759 5.72333 21.4103 4.78867 20.2765 4.26889C19.709 4.00869 19.2485 3.85197 18.9388 3.76174C18.7839 3.71664 18.5892 3.67195 18.5154 3.65551C17.9727 3.56508 17.5916 3.05052 17.6796 2.50689Z" fill="#FCFCFC"/>
<path fill-rule="evenodd" clip-rule="evenodd" d="M17.9813 7.10618C18.133 6.57514 18.6865 6.26765 19.2176 6.41937L18.9428 7.3809C19.2176 6.41937 19.2176 6.41937 19.2176 6.41937L19.2195 6.41992L19.2215 6.42051L19.226 6.42181L19.2363 6.4249L19.2627 6.43312C19.2828 6.43955 19.3079 6.44792 19.3378 6.45854C19.3977 6.47979 19.4769 6.51001 19.5739 6.55161C19.7682 6.63486 20.0336 6.76342 20.3596 6.95637C21.0122 7.34261 21.9031 7.98418 22.9498 9.03081C23.9964 10.0774 24.638 10.9684 25.0242 11.621C25.2172 11.947 25.3457 12.2124 25.429 12.4067C25.4706 12.5037 25.5008 12.5829 25.522 12.6428C25.5327 12.6727 25.541 12.6978 25.5475 12.7179L25.5557 12.7443L25.5588 12.7546L25.5601 12.7591L25.5607 12.7611C25.5607 12.7611 25.5612 12.763 24.5997 13.0378L25.5612 12.763C25.7129 13.2941 25.4054 13.8476 24.8744 13.9993C24.3479 14.1497 23.7993 13.8487 23.6421 13.326L23.6372 13.3116C23.6301 13.2915 23.6154 13.2521 23.5907 13.1945C23.5414 13.0794 23.4519 12.8911 23.3031 12.6396C23.0058 12.1373 22.4688 11.3783 21.5356 10.445C20.6023 9.51176 19.8433 8.97482 19.341 8.67752C19.0895 8.5287 18.9012 8.43924 18.7861 8.3899C18.7285 8.36522 18.689 8.35051 18.669 8.3434L18.6546 8.33847C18.1319 8.1813 17.8309 7.6327 17.9813 7.10618Z" fill="#FCFCFC"/>
<path fill-rule="evenodd" clip-rule="evenodd" d="M6.67676 5.87591C8.91685 3.63581 12.697 3.8061 14.2568 6.60094L15.1222 8.15151C16.1407 9.9766 15.7067 12.2794 14.2156 13.7887C14.1957 13.8159 14.0905 13.9691 14.0774 14.2369C14.0606 14.5786 14.182 15.369 15.4066 16.5936C16.6308 17.8177 17.421 17.9394 17.7629 17.9228C18.0309 17.9098 18.1843 17.8045 18.2115 17.7846C19.7208 16.2935 22.0236 15.8595 23.8487 16.878L25.3992 17.7434C28.1941 19.3031 28.3644 23.0833 26.1243 25.3234C24.926 26.5216 23.3328 27.5863 21.4606 27.6572C18.686 27.7624 14.079 27.0459 9.51663 22.4835C4.95425 17.9212 4.23773 13.3142 4.34292 10.5396C4.41389 8.66734 5.47855 7.07412 6.67676 5.87591ZM12.5104 7.5756C11.7117 6.14447 9.56542 5.81568 8.09098 7.29012C7.05718 8.32392 6.38509 9.465 6.34148 10.6154C6.25376 12.9292 6.82502 16.9635 10.9308 21.0693C15.0367 25.1751 19.071 25.7464 21.3848 25.6587C22.5352 25.6151 23.6763 24.943 24.71 23.9092C26.1845 22.4347 25.8557 20.2885 24.4246 19.4898L22.874 18.6245C21.9095 18.0862 20.5546 18.2698 19.6035 19.2208C19.5101 19.3142 18.9154 19.8691 17.8601 19.9204C16.7798 19.973 15.4722 19.4876 13.9924 18.0078C12.5121 16.5275 12.0269 15.2195 12.0798 14.1391C12.1314 13.0837 12.6864 12.4896 12.7793 12.3967C13.7303 11.4456 13.914 10.0907 13.3757 9.12617L12.5104 7.5756Z" fill="#FCFCFC"/>
</svg>
