<svg width="52" height="51" viewBox="0 0 52 51" fill="none" xmlns="http://www.w3.org/2000/svg">
<path d="M37.3473 23.6462C38.6857 24.415 38.6857 26.3458 37.3473 27.1146L21.6102 36.1549C20.2769 36.9208 18.614 35.9583 18.614 34.4207V16.3402C18.614 14.8025 20.2769 13.84 21.6102 14.6059L37.3473 23.6462Z" fill="url(#paint0_linear_898_1353)"/>
<path fill-rule="evenodd" clip-rule="evenodd" d="M25.8645 50.1155C39.7931 50.1155 51.0845 39.0413 51.0845 25.3805C51.0845 11.7197 39.7931 0.645508 25.8645 0.645508C11.9359 0.645508 0.644531 11.7197 0.644531 25.3805C0.644531 39.0413 11.9359 50.1155 25.8645 50.1155ZM22.5695 34.8931L34.4738 27.9999C36.4454 26.8582 36.4454 23.9028 34.4738 22.7612L22.5695 15.8679C20.6533 14.7583 18.2985 16.2025 18.2985 18.4873V32.2738C18.2985 34.5585 20.6533 36.0027 22.5695 34.8931Z" fill="#FCFCFC"/>
<defs>
<linearGradient id="paint0_linear_898_1353" x1="42.904" y1="-13.9379" x2="15.7748" y2="46.6541" gradientUnits="userSpaceOnUse">
<stop stop-color="#61B895"/>
<stop offset="0.525" stop-color="#149ED5"/>
<stop offset="0.9999" stop-color="#FF1CF7"/>
</linearGradient>
</defs>
</svg>
