<svg width="68" height="68" viewBox="0 0 68 68" fill="none" xmlns="http://www.w3.org/2000/svg">
<path fill-rule="evenodd" clip-rule="evenodd" d="M49.26 7.489C50.2663 6.88518 50.5927 5.57988 49.9888 4.57352C49.385 3.56716 48.0797 3.24084 47.0734 3.84465L40.428 7.8319C38.4824 6.89819 36.3023 6.37516 34 6.37516C31.6978 6.37516 29.5177 6.89819 27.5721 7.8319L20.9266 3.84465C19.9203 3.24084 18.615 3.56716 18.0112 4.57352C17.4074 5.57988 17.7337 6.88518 18.74 7.489L23.7341 10.4855C20.8944 13.1944 19.125 17.0157 19.125 21.2502V22.0737C18.3979 22.458 17.7108 22.9079 17.0716 23.4153C16.8768 23.2242 16.6418 23.0676 16.3725 22.9599L10.7059 20.6933C9.61621 20.2574 8.37953 20.7874 7.94366 21.8771C7.50779 22.9667 8.0378 24.2034 9.12747 24.6393L14.1456 26.6465C12.8141 28.7161 12.0417 31.1794 12.0417 33.8231V37.5418H5.66667C4.49307 37.5418 3.54167 38.4932 3.54167 39.6668C3.54167 40.8404 4.49307 41.7918 5.66667 41.7918H12.0417V42.5002C12.0417 46.1241 12.9195 49.5429 14.4742 52.5557L9.12747 54.6944C8.0378 55.1302 7.50779 56.3669 7.94366 57.4566C8.37953 58.5462 9.61621 59.0763 10.7059 58.6404L16.3725 56.3737C16.5249 56.3128 16.6664 56.2361 16.7958 56.1464C20.8183 61.211 27.0299 64.4585 34 64.4585C40.9701 64.4585 47.1817 61.211 51.2042 56.1464C51.3336 56.2361 51.4751 56.3128 51.6275 56.3737L57.2941 58.6404C58.3838 59.0763 59.6205 58.5462 60.0564 57.4566C60.4922 56.3669 59.9622 55.1302 58.8725 54.6944L53.5258 52.5557C55.0805 49.5429 55.9583 46.1241 55.9583 42.5002V41.7918H62.3333C63.5069 41.7918 64.4583 40.8404 64.4583 39.6668C64.4583 38.4932 63.5069 37.5418 62.3333 37.5418H55.9583V33.8231C55.9583 31.1794 55.1859 28.7161 53.8544 26.6465L58.8725 24.6393C59.9622 24.2034 60.4922 22.9667 60.0564 21.8771C59.6205 20.7874 58.3838 20.2574 57.2941 20.6933L51.6275 22.9599C51.3582 23.0676 51.1232 23.2242 50.9284 23.4153C50.2892 22.9079 49.6021 22.458 48.875 22.0737V21.2502C48.875 17.0157 47.1056 13.1944 44.2659 10.4855L49.26 7.489ZM16.2917 42.5002V33.8231C16.2917 28.8353 20.3351 24.7918 25.3229 24.7918H42.6771C47.6649 24.7918 51.7083 28.8353 51.7083 33.8231V42.5002C51.7083 51.5611 44.9032 59.0325 36.125 60.0823V42.5002C36.125 41.3266 35.1736 40.3752 34 40.3752C32.8264 40.3752 31.875 41.3266 31.875 42.5002V60.0823C23.0969 59.0325 16.2917 51.5611 16.2917 42.5002ZM34 10.6252C39.6773 10.6252 44.3145 15.0779 44.6101 20.6815C43.979 20.5895 43.3336 20.5418 42.6771 20.5418H25.3229C24.6664 20.5418 24.021 20.5895 23.39 20.6815C23.6855 15.0778 28.3228 10.6252 34 10.6252Z" fill="url(#paint0_linear_901_2299)"/>
<defs>
<linearGradient id="paint0_linear_901_2299" x1="-48.999" y1="-1.78873" x2="78.6923" y2="55.6711" gradientUnits="userSpaceOnUse">
<stop stop-color="#61B895"/>
<stop offset="0.525" stop-color="#149ED5"/>
<stop offset="0.9999" stop-color="#FF1CF7"/>
</linearGradient>
</defs>
</svg>
