<svg width="56" height="52" viewBox="0 0 56 52" fill="none" xmlns="http://www.w3.org/2000/svg">
<rect width="56" height="52" rx="6" fill="#FCFCFC"/>
<path d="M23.5 26C23.5 26.8284 22.8284 27.5 22 27.5C21.1716 27.5 20.5 26.8284 20.5 26C20.5 25.1716 21.1716 24.5 22 24.5C22.8284 24.5 23.5 25.1716 23.5 26Z" fill="url(#paint0_linear_901_2316)"/>
<path d="M29.5 26C29.5 26.8284 28.8284 27.5 28 27.5C27.1716 27.5 26.5 26.8284 26.5 26C26.5 25.1716 27.1716 24.5 28 24.5C28.8284 24.5 29.5 25.1716 29.5 26Z" fill="url(#paint1_linear_901_2316)"/>
<path d="M35.5 26C35.5 26.8284 34.8284 27.5 34 27.5C33.1716 27.5 32.5 26.8284 32.5 26C32.5 25.1716 33.1716 24.5 34 24.5C34.8284 24.5 35.5 25.1716 35.5 26Z" fill="url(#paint2_linear_901_2316)"/>
<path fill-rule="evenodd" clip-rule="evenodd" d="M44.125 26C44.125 17.0944 36.9056 9.875 28 9.875C19.0944 9.875 11.875 17.0944 11.875 26C11.875 28.5775 12.4806 31.0167 13.5582 33.1803C13.719 33.5031 13.7531 33.8328 13.6789 34.1101L12.7855 37.4492C12.1739 39.7349 14.265 41.8261 16.5508 41.2145L19.8899 40.3211C20.1672 40.2469 20.4969 40.281 20.8197 40.4418C22.9833 41.5194 25.4225 42.125 28 42.125C36.9056 42.125 44.125 34.9056 44.125 26ZM28 12.125C35.663 12.125 41.875 18.337 41.875 26C41.875 33.663 35.663 39.875 28 39.875C25.7784 39.875 23.6818 39.3537 21.8229 38.4278C21.0768 38.0562 20.1846 37.9131 19.3083 38.1476L15.9692 39.041C15.356 39.205 14.795 38.644 14.959 38.0308L15.8524 34.6917C16.0869 33.8154 15.9438 32.9232 15.5722 32.1771C14.6463 30.3182 14.125 28.2216 14.125 26C14.125 18.337 20.337 12.125 28 12.125Z" fill="url(#paint3_linear_901_2316)"/>
<defs>
<linearGradient id="paint0_linear_901_2316" x1="-15.9406" y1="7.05313" x2="51.6605" y2="37.4732" gradientUnits="userSpaceOnUse">
<stop stop-color="#61B895"/>
<stop offset="0.525" stop-color="#149ED5"/>
<stop offset="0.9999" stop-color="#FF1CF7"/>
</linearGradient>
<linearGradient id="paint1_linear_901_2316" x1="-15.9406" y1="7.05313" x2="51.6605" y2="37.4732" gradientUnits="userSpaceOnUse">
<stop stop-color="#61B895"/>
<stop offset="0.525" stop-color="#149ED5"/>
<stop offset="0.9999" stop-color="#FF1CF7"/>
</linearGradient>
<linearGradient id="paint2_linear_901_2316" x1="-15.9406" y1="7.05313" x2="51.6605" y2="37.4732" gradientUnits="userSpaceOnUse">
<stop stop-color="#61B895"/>
<stop offset="0.525" stop-color="#149ED5"/>
<stop offset="0.9999" stop-color="#FF1CF7"/>
</linearGradient>
<linearGradient id="paint3_linear_901_2316" x1="-15.9406" y1="7.05313" x2="51.6605" y2="37.4732" gradientUnits="userSpaceOnUse">
<stop stop-color="#61B895"/>
<stop offset="0.525" stop-color="#149ED5"/>
<stop offset="0.9999" stop-color="#FF1CF7"/>
</linearGradient>
</defs>
</svg>
