<svg width="56" height="62" viewBox="0 0 56 62" fill="none" xmlns="http://www.w3.org/2000/svg">
<path fill-rule="evenodd" clip-rule="evenodd" d="M27.9999 4.7915C24.4791 4.7915 21.6249 7.64569 21.6249 11.1665V11.9028C23.2033 11.8748 24.9352 11.8748 26.8358 11.8748H29.164C31.0647 11.8748 32.7966 11.8748 34.3749 11.9028V11.1665C34.3749 7.64569 31.5207 4.7915 27.9999 4.7915ZM38.6249 12.0956V11.1665C38.6249 5.29848 33.868 0.541504 27.9999 0.541504C22.1319 0.541504 17.3749 5.29848 17.3749 11.1665V12.0956C16.9705 12.1304 16.5797 12.1707 16.2021 12.2174C13.3405 12.571 10.9814 13.3137 8.97745 14.9769C6.97346 16.64 5.80869 18.8218 4.93383 21.5693C4.08599 24.2318 3.44421 27.6548 2.63745 31.9577L2.57886 32.2702C1.44044 38.3416 0.543279 43.1262 0.378637 46.8983C0.20988 50.7646 0.785086 53.9668 2.96611 56.5948C5.14715 59.2228 8.18849 60.3783 12.0197 60.9249C15.7575 61.4583 20.6255 61.4582 26.8025 61.4582H29.1972C35.3743 61.4582 40.2423 61.4583 43.9801 60.9249C47.8114 60.3783 50.8527 59.2228 53.0337 56.5948C55.2148 53.9668 55.79 50.7646 55.6212 46.8983C55.4566 43.1262 54.5594 38.3416 53.421 32.2703L53.3624 31.9578C52.5556 27.6549 51.9139 24.2318 51.066 21.5693C50.1912 18.8218 49.0264 16.64 47.0224 14.9769C45.0184 13.3137 42.6593 12.571 39.7977 12.2174C39.4201 12.1707 39.0293 12.1304 38.6249 12.0956ZM16.7233 16.4353C14.2992 16.7348 12.8352 17.2982 11.6917 18.2473C10.5481 19.1963 9.72457 20.5315 8.98347 22.8588C8.22453 25.2422 7.62741 28.4063 6.78842 32.8809C5.61055 39.1629 4.77447 43.6498 4.62459 47.0836C4.47728 50.4588 5.01863 52.4131 6.23653 53.8806C7.45443 55.3481 9.27554 56.2403 12.62 56.7176C16.0226 57.203 20.5868 57.2082 26.9782 57.2082H29.0216C35.4131 57.2082 39.9772 57.203 43.3798 56.7175C46.7243 56.2403 48.5454 55.3481 49.7633 53.8806C50.9812 52.4131 51.5226 50.4588 51.3753 47.0836C51.2254 43.6498 50.3893 39.1629 49.2114 32.8809C48.3724 28.4063 47.7753 25.2422 47.0164 22.8588C46.2753 20.5315 45.4517 19.1963 44.3082 18.2473C43.1646 17.2982 41.7006 16.7348 39.2766 16.4353C36.7942 16.1286 33.5742 16.1248 29.0216 16.1248H26.9783C22.4257 16.1248 19.2057 16.1286 16.7233 16.4353ZM35.0784 30.8283C35.9555 31.608 36.0345 32.9511 35.2548 33.8283L27.6993 42.3283C27.3233 42.7512 26.7943 43.0067 26.2293 43.0382C25.6643 43.0697 25.1101 42.8745 24.6895 42.496L20.9117 39.096C20.0394 38.3109 19.9687 36.9673 20.7538 36.095C21.5389 35.2226 22.8825 35.1519 23.7548 35.937L25.9433 37.9067L32.0783 31.0047C32.858 30.1276 34.2012 30.0486 35.0784 30.8283Z" fill="url(#paint0_linear_844_17227)"/>
<defs>
<linearGradient id="paint0_linear_844_17227" x1="-47.3432" y1="-4.7887" x2="72.1093" y2="44.0059" gradientUnits="userSpaceOnUse">
<stop stop-color="#61B895"/>
<stop offset="0.525" stop-color="#149ED5"/>
<stop offset="0.9999" stop-color="#FF1CF7"/>
</linearGradient>
</defs>
</svg>
